<?xml version="1.0" standalone="no"?>
<!DOCTYPE svg PUBLIC "-//W3C//DTD SVG 20010904//EN"
 "http://www.w3.org/TR/2001/REC-SVG-20010904/DTD/svg10.dtd">
<svg version="1.0" xmlns="http://www.w3.org/2000/svg"
 width="1366.000000pt" height="1366.000000pt" viewBox="0 0 1366.000000 1366.000000"
 preserveAspectRatio="xMidYMid meet">
<metadata>
Created by potrace 1.14, written by Peter Selinger 2001-2017
</metadata>
<g transform="translate(0.000000,1366.000000) scale(0.100000,-0.100000)"
fill="#000000" stroke="none">
<path d="M6538 13655 c-2 -1 -61 -6 -133 -9 -71 -4 -143 -9 -160 -11 -16 -2
-59 -6 -95 -10 -73 -7 -144 -15 -176 -20 -12 -2 -48 -6 -80 -10 -33 -4 -70 -9
-84 -11 -14 -3 -63 -11 -110 -19 -164 -27 -211 -36 -293 -55 -45 -11 -95 -22
-112 -24 -187 -33 -971 -284 -1019 -328 -6 -4 -16 -8 -23 -8 -11 0 -72 -26
-278 -118 -174 -78 -586 -299 -697 -374 -31 -21 -59 -38 -61 -38 -3 0 -175
-111 -217 -140 -179 -124 -461 -338 -536 -405 -12 -11 -35 -31 -50 -44 -179
-152 -370 -333 -554 -528 -74 -78 -114 -123 -203 -227 -10 -11 -39 -45 -65
-75 -44 -50 -134 -164 -203 -256 -17 -22 -39 -52 -51 -67 -52 -69 -146 -208
-246 -363 -285 -441 -513 -905 -693 -1409 -34 -95 -134 -411 -144 -455 -2 -9
-20 -79 -40 -156 -19 -77 -37 -153 -40 -170 -3 -16 -10 -46 -15 -65 -5 -19
-12 -51 -15 -70 -3 -19 -17 -93 -30 -165 -13 -71 -27 -157 -30 -190 -4 -33 -8
-62 -10 -65 -2 -3 -6 -34 -9 -70 -4 -36 -8 -76 -11 -90 -4 -24 -9 -76 -19
-180 -28 -287 -28 -1028 -1 -1190 2 -14 7 -57 10 -95 3 -39 8 -86 10 -105 3
-19 7 -59 11 -88 3 -29 7 -63 10 -75 2 -11 6 -39 9 -62 3 -22 10 -66 16 -97 6
-32 12 -70 15 -85 8 -50 16 -94 33 -175 7 -29 14 -67 17 -85 4 -25 65 -274 89
-363 38 -142 162 -519 195 -595 10 -22 34 -83 55 -135 75 -192 274 -615 344
-730 11 -19 24 -42 28 -50 28 -62 271 -449 359 -575 64 -90 158 -220 175 -240
10 -11 54 -67 100 -125 220 -278 577 -654 804 -845 26 -22 64 -55 84 -73 80
-74 358 -292 461 -362 12 -8 56 -40 99 -70 42 -30 84 -59 93 -65 9 -5 74 -47
145 -92 325 -207 756 -429 1063 -548 52 -20 104 -40 115 -45 71 -33 401 -146
550 -189 69 -20 296 -80 325 -86 8 -2 69 -15 135 -30 66 -14 136 -28 155 -31
19 -3 51 -9 70 -14 19 -5 55 -11 80 -14 25 -3 56 -8 70 -11 14 -3 45 -8 70
-11 25 -3 54 -7 65 -9 11 -2 45 -6 75 -9 30 -4 64 -9 75 -11 11 -2 58 -7 105
-10 47 -4 96 -8 110 -11 114 -18 734 -25 980 -11 169 10 353 26 460 42 14 2
48 6 75 10 47 5 367 59 410 69 11 2 56 12 100 21 82 16 406 98 460 115 17 6
95 31 175 56 131 42 355 121 405 144 11 5 54 23 95 39 112 43 390 171 515 236
171 89 330 178 333 187 2 4 9 8 14 8 15 0 129 71 333 207 235 157 319 218 470
341 11 10 37 29 57 44 20 15 42 33 50 40 14 14 60 54 152 133 161 137 468 444
601 599 28 32 58 68 68 80 10 11 28 32 40 46 23 26 122 147 135 165 4 6 32 42
62 80 61 77 226 308 282 395 19 30 60 93 90 140 30 47 72 117 93 155 21 39 51
89 67 113 16 23 26 42 22 42 -4 0 0 8 8 18 15 16 218 414 218 426 0 3 16 40
36 83 20 43 43 92 50 108 32 70 149 378 194 513 81 241 167 566 214 802 8 41
17 84 19 95 3 11 8 40 12 65 4 25 9 52 10 60 1 8 6 35 10 60 4 25 9 52 10 61
2 8 6 40 9 70 3 30 8 65 10 79 7 38 15 108 21 185 4 39 8 81 10 95 26 153 26
1002 1 1160 -2 14 -7 63 -11 110 -3 47 -8 96 -10 110 -2 14 -6 48 -9 75 -34
272 -107 642 -177 899 -17 61 -36 134 -44 162 -28 101 -137 425 -166 489 -5
11 -31 76 -58 145 -177 451 -463 975 -767 1401 -75 104 -240 321 -279 366 -5
6 -28 33 -50 59 -210 250 -519 568 -704 724 -29 25 -66 57 -82 71 -46 43 -94
82 -259 212 -9 7 -36 28 -60 48 -159 126 -495 348 -737 488 -127 72 -552 291
-567 291 -3 0 -40 16 -82 36 -136 63 -619 246 -714 269 -8 2 -62 18 -120 35
-200 58 -494 128 -660 156 -14 3 -47 9 -75 14 -27 5 -68 12 -90 15 -22 3 -51
7 -65 10 -14 2 -63 9 -110 15 -47 6 -98 12 -115 15 -31 4 -222 22 -335 31 -72
5 -746 14 -752 9z"/>
</g>
</svg>
